<svg xmlns="http://www.w3.org/2000/svg" width="16" height="16" viewBox="0 0 300 300">
  <path
     d="m 223,125 c 3,1 3,1 3,1 z"
     fill="#50a14f"
     id="path10" />
  <path
     d="m 230,126 c 2,1 2,1 2,1 z"
     fill="#50a14f"
     id="path12" />
  <path
     style="fill:#50a14f;fill-opacity:1;stroke:#50a14f;stroke-width:0.239697;stroke-opacity:1"
     d="m 171.50336,225.792 c -8.20235,-0.50357 -15.58189,-1.66735 -23.49033,-3.70451 -11.61079,-2.99087 -21.6688,-6.84499 -33.79731,-12.95076 -17.415153,-8.76721 -32.473716,-19.07221 -54.769001,-37.48 -1.778755,-1.46861 -3.342779,-2.66949 -3.47561,-2.66862 -0.494991,0.003 -7.109223,5.98694 -11.633752,10.52475 -2.574398,2.58194 -5.963111,6.19103 -7.530474,8.02018 -3.245355,3.78741 -4.983771,5.19814 -7.287091,5.91347 -2.10395,0.65341 -5.066486,0.85376 -7.060605,0.4775 -3.230202,-0.6095 -6.643696,-2.88935 -8.26778,-5.522 -1.180228,-1.91316 -1.670614,-3.33882 -2.006212,-5.83251 -0.334629,-2.48649 -0.04742,-3.84343 1.486965,-7.02533 2.034499,-4.21899 3.84141,-6.2993 14.198326,-16.34661 3.978695,-3.85976 7.125307,-7.51471 7.125307,-8.27641 0,-0.62051 -1.253733,-2.80717 -2.766828,-4.8257 -0.691761,-0.92283 -3.063809,-3.56549 -5.271219,-5.87258 -12.810662,-13.38913 -14.089755,-15.02035 -14.749749,-18.81032 -0.819989,-4.70872 0.715481,-8.95697 4.609375,-12.75293 2.113582,-2.06043 3.592192,-2.56888 7.511895,-2.58314 4.571007,-0.0166 6.651747,0.84063 10.978448,4.52308 0.632974,0.53872 3.11384,3.13636 5.513035,5.77254 6.282442,6.90298 10.939737,11.79626 12.746517,13.39239 l 1.573318,1.38988 1.373146,-0.77301 c 2.338857,-1.31665 3.933484,-2.48765 6.414134,-4.71014 8.170904,-7.32056 25.190986,-19.93431 35.58769,-26.374377 7.389195,-4.577115 16.089805,-9.197823 23.321375,-12.385488 11.03362,-4.863601 24.58765,-8.952113 35.84716,-10.813135 6.94614,-1.148088 10.41324,-1.407454 18.73306,-1.401374 6.53262,0.0048 8.50309,0.09151 12.20661,0.537283 18.37151,2.211305 34.51152,8.04196 49.56844,17.906826 7.02011,4.599381 13.29685,9.790695 21.13336,17.478825 7.60308,7.45912 11.43689,11.90075 21.5176,24.92899 7.02234,9.07562 7.16493,9.34429 7.12459,13.42305 -0.0327,3.30674 -0.40037,4.58342 -2.59117,8.99817 -3.38201,6.81513 -8.62671,13.53338 -18.6171,23.84782 -2.55783,2.64078 -6.29516,6.53543 -8.30519,8.65479 -13.50241,14.23673 -29.42818,23.90233 -50.8765,30.87775 -7.29174,2.37142 -11.73981,3.32684 -18.93608,4.06737 -4.43834,0.45672 -12.81566,0.63967 -17.13835,0.37428 z m 12.8238,-26.23474 c 11.8987,-1.26891 20.32474,-3.66401 30.082,-8.55079 6.42167,-3.2162 11.01111,-6.1103 16.11956,-10.16501 3.54547,-2.81413 11.28038,-9.69935 14.56168,-12.96206 4.3749,-4.35011 12.64988,-13.90456 13.56782,-15.66568 1.31767,-2.52801 -0.42965,-5.42704 -8.24491,-13.67932 -2.44012,-2.57658 -5.51968,-5.9925 -6.84345,-7.59094 -7.71859,-9.32004 -16.13886,-15.42587 -32.69538,-23.7085 -5.09778,-2.55024 -7.05983,-3.40365 -9.32271,-4.05498 -3.97224,-1.14333 -7.01226,-1.73037 -10.51701,-2.03089 -1.64576,-0.14111 -4.55632,-0.44083 -6.46791,-0.66604 -4.82209,-0.568095 -15.87387,-0.552591 -20.25441,0.0284 -18.43522,2.44514 -35.93552,9.60857 -56.32885,23.05721 -8.877337,5.85428 -17.68726,12.51863 -29.403041,22.24224 l -3.755444,3.11687 0.589082,1.33202 c 2.567862,5.80638 10.502794,13.71577 20.464699,20.39882 8.241974,5.52921 19.631914,11.7207 31.680794,17.22146 13.57782,6.19878 27.79702,10.41074 38.91004,11.5258 1.45016,0.14551 2.96026,0.30173 3.35576,0.34716 2.09185,0.24028 11.61869,0.11166 14.50168,-0.19579 z"
     id="path1754" />
</svg>
